# xmcd
#
# Track frame offsets: 
#        150
#        18342
#        35297
#        54472
#        77650
#        93490
#        111777
#        131010
#        146167
#        162470
#        177647
#        195282
#        215562
#        237700
#        257867
#        276387
#        291632
#        309427
#        333335
#
# Disc length: 4736 seconds
#
# Revision: 3
# Processed by: cddbd v1.5.2PL0 Copyright (c) Steve Scherf et al.
# Submitted via: ExactAudioCopy v0.99pb4
#
DISCID=27127e13
DTITLE=Johnnie Taylor - Lifetime - A Retrospective Of Soul, Blues and Go
DTITLE=spel (1956-1999) [Disc 3]
DYEAR=2000
DGENRE=Soul
TTITLE0=Standing In For Jody
TTITLE1=Doing My Own Thing [Part 1]
TTITLE2=Stop Doggin' Me
TTITLE3=I Believe In You (You Believe In Me)
TTITLE4=Cheaper To Keep Her
TTITLE5=We're Getting Careless With Our Love
TTITLE6=Starting All Over Again
TTITLE7=I've Been Born Again
TTITLE8=It's September
TTITLE9=Try Me Tonight
TTITLE10=Free
TTITLE11=Disco Lady
TTITLE12=Running Out Of Lies
TTITLE13=God Is Standing By
TTITLE14=Play Something Pretty
TTITLE15=Lady, My Whole World Is You
TTITLE16=Lover Boy
TTITLE17=Last Two Dollars
TTITLE18=Soul Heaven
EXTD=Label: Fantasy Inc. - Stax Records\n3SCD-4432-2
EXTT0=
EXTT1=
EXTT2=
EXTT3=
EXTT4=
EXTT5=
EXTT6=
EXTT7=
EXTT8=
EXTT9=
EXTT10=
EXTT11=
EXTT12=
EXTT13=
EXTT14=
EXTT15=
EXTT16=
EXTT17=
EXTT18=
PLAYORDER=
